<svg xmlns="http://www.w3.org/2000/svg" viewBox="0 0 128 128">
  <defs>
    <linearGradient id="canopyGradient" x1="0%" y1="0%" x2="100%" y2="100%">
      <stop offset="0%" style="stop-color:#2D9B3A;stop-opacity:1" />
      <stop offset="100%" style="stop-color:#1A5E23;stop-opacity:1" />
    </linearGradient>
  </defs>
  <rect width="128" height="128" rx="16" fill="url(#canopyGradient)"/>
  <g fill="#FFFFFF">
    <path d="M64 20 C35 20 20 45 20 64 C20 83 35 95 50 95 L50 85 C40 85 30 77 30 64 C30 50 40 30 64 30 C88 30 98 50 98 64 C98 77 88 85 78 85 L78 95 C93 95 108 83 108 64 C108 45 93 20 64 20 Z"/>
    <circle cx="64" cy="64" r="10"/>
    <path d="M64 78 L64 108" stroke="#FFFFFF" stroke-width="6" stroke-linecap="round"/>
  </g>
</svg>
